<svg xmlns="http://www.w3.org/2000/svg" width="127" height="127" viewBox="0 0 127 127">
    <defs>
        <style>
            .cls-3{fill:none;stroke:#10ca93;stroke-linecap:round;stroke-width:2px}
        </style>
    </defs>
    <g id="read_tweeet" transform="translate(-1422 -678)">
        <g id="Ellipse_40" fill="#191d43" stroke="#404277" transform="translate(1422 678)">
            <circle cx="63.5" cy="63.5" r="63.5" stroke="none"/>
            <circle cx="63.5" cy="63.5" r="63" fill="none"/>
        </g>
        <g id="Group_192" transform="translate(1445.605 702.806)">
            <path id="Path_370" fill="#36f" d="M75.234 9.459C59.747 1.02 44.392 6.749 39.856 8.8c-4.536-2.051-19.894-7.778-35.379.659A2.835 2.835 0 0 0 3 11.949v52.6a2.835 2.835 0 0 0 4.193 2.489c15.309-8.332 31.169-.074 31.319 0 .054.028.111.037.162.062s.133.051.2.077l.094.037c.037 0 .068.028.1.04a2.883 2.883 0 0 0 .785.13c.057 0 .111-.02.167-.023s.142-.02.215-.028a2.959 2.959 0 0 0 .587-.145c.082-.031.159-.062.235-.1.037-.02.077 0 .113-.034.159-.082 16.032-8.344 31.325 0a2.835 2.835 0 0 0 4.213-2.506v-52.6a2.835 2.835 0 0 0-1.478-2.489zM8.67 60.108V13.684a35.537 35.537 0 0 1 28.351.077v46.494a40.6 40.6 0 0 0-28.351-.147zm62.371 0a40.572 40.572 0 0 0-28.351.153V13.76a35.554 35.554 0 0 1 28.351-.077z" transform="translate(0 0)"/>
        </g>
        <path id="Path_371" d="M4616.125 6065.179h18.606" class="cls-3" transform="translate(-3124 -5337)"/>
        <path id="Path_372" d="M4616.125 6065.179h18.606" class="cls-3" transform="translate(-3124 -5330)"/>
    </g>
</svg>
