<svg xmlns="http://www.w3.org/2000/svg" width="25" height="25" viewBox="0 0 25 25">
    <g>
        <path fill="none" d="M0 0H25V25H0z" transform="translate(-505 -100) translate(505 100)"/>
        <path fill="#f8f8f8" d="M8.666 13.022a1.037 1.037 0 1 1 1.03-1.03 1.038 1.038 0 0 1-1.03 1.03zm12.669-2.073A10.386 10.386 0 1 1 10.949.563a10.384 10.384 0 0 1 10.386 10.386zm-5.541-1.726a1.4 1.4 0 0 0-1 .419 6.771 6.771 0 0 0-3.606-1.114l.729-3.279 2.32.523a1.032 1.032 0 0 0 1.03 1.03 1.043 1.043 0 1 0-.926-1.508l-2.563-.57a.248.248 0 0 0-.289.184l-.8 3.618A6.832 6.832 0 0 0 7.113 9.65a1.386 1.386 0 1 0-1.612 2.2 3.023 3.023 0 0 0-.071.649c0 2.2 2.479 3.987 5.528 3.987S16.5 14.705 16.5 12.5a2.675 2.675 0 0 0-.08-.662 1.382 1.382 0 0 0-.624-2.617zm-2.885 4.867a3.671 3.671 0 0 1-3.92 0 .253.253 0 0 0-.348 0 .246.246 0 0 0 0 .36 4.076 4.076 0 0 0 4.615 0 .246.246 0 0 0 0-.36.253.253 0 0 0-.347 0zm.322-3.141a1.037 1.037 0 1 0 1.043 1.043 1.035 1.035 0 0 0-1.043-1.043z" transform="translate(-505 -100) translate(506.438 101.438)"/>
    </g>
</svg>
