<?xml version="1.0" standalone="no"?>
<!DOCTYPE svg PUBLIC "-//W3C//DTD SVG 20010904//EN"
 "http://www.w3.org/TR/2001/REC-SVG-20010904/DTD/svg10.dtd">
<svg version="1.0" xmlns="http://www.w3.org/2000/svg"
 width="260.000000pt" height="260.000000pt" viewBox="0 0 260.000000 260.000000"
 preserveAspectRatio="xMidYMid meet">

<g transform="translate(0.000000,260.000000) scale(0.100000,-0.100000)"
fill="#000000" stroke="none">
<path d="M1060 2173 c-293 -50 -560 -260 -674 -531 -85 -202 -90 -459 -12
-666 78 -206 249 -390 454 -487 101 -48 245 -82 293 -69 56 15 89 60 89 121 0
73 -32 104 -135 129 -307 76 -505 321 -505 626 0 278 180 523 445 607 57 18
93 22 195 22 110 -1 134 -4 198 -27 197 -71 344 -221 405 -413 18 -56 22 -94
22 -192 0 -67 -3 -124 -7 -128 -3 -4 -57 34 -119 84 -62 50 -117 91 -122 91
-5 0 -7 -15 -4 -32 3 -18 18 -162 34 -320 l27 -288 26 0 c46 0 613 60 618 65
7 6 13 1 -123 110 -60 49 -114 92 -118 95 -4 4 2 42 15 86 20 68 23 102 23
239 0 182 -11 236 -75 372 -51 109 -115 197 -204 280 -117 108 -267 187 -418
217 -71 15 -264 20 -328 9z m324 -34 c148 -34 303 -115 407 -211 115 -107 216
-280 255 -438 27 -110 25 -298 -5 -405 -35 -126 -37 -115 26 -165 31 -25 83
-66 114 -91 l57 -47 -91 -11 c-197 -25 -472 -50 -478 -43 -7 9 -60 554 -54
560 2 2 52 -35 110 -83 76 -62 110 -84 117 -77 6 6 13 66 16 134 3 94 1 138
-12 188 -76 299 -336 503 -641 503 -526 0 -841 -585 -550 -1023 91 -137 257
-250 409 -281 84 -16 126 -50 126 -101 0 -43 -33 -96 -65 -104 -37 -9 -111 3
-194 30 -225 77 -398 230 -501 441 -72 147 -84 203 -85 375 0 170 15 237 80
375 171 364 574 563 959 474z"/>
</g>
</svg>
