<svg xmlns="http://www.w3.org/2000/svg" width="59.772" height="59.772" viewBox="0 0 59.772 59.772"><defs><style>.a{fill:none;stroke-miterlimit:10;}.b{fill:#fff;}.c,.d{stroke:none;}.d{fill:#fff;}</style></defs><g class="a"><path class="c" d="M29.886,59.772A30.12,30.12,0,0,1,9.772,52.1,29.761,29.761,0,0,1,0,33.241l6.753-3.355L0,26.531A29.76,29.76,0,0,1,9.772,7.668,30.215,30.215,0,0,1,50,7.669a29.763,29.763,0,0,1,9.772,18.863L53.02,29.886l6.753,3.355A29.76,29.76,0,0,1,50,52.1,30.12,30.12,0,0,1,29.886,59.772Z"/><path class="d" d="M 29.88615417480469 57.77245330810547 C 36.8372802734375 57.77245330810547 43.50712966918945 55.23014068603516 48.66703033447266 50.61385345458984 C 53.43729019165039 46.34609985351562 56.57427597045898 40.62839126586914 57.59516143798828 34.39294815063477 L 48.52464294433594 29.88596534729004 L 57.59524917602539 25.38027572631836 C 56.57435989379883 19.14473915100098 53.43735885620117 13.42702865600586 48.66701507568359 9.159066200256348 C 43.5070915222168 4.542478561401367 36.83724212646484 2.000003576278687 29.88615417480469 2.000003576278687 C 22.93501663208008 2.000003576278687 16.26517868041992 4.54231595993042 11.10531616210938 9.158628463745117 C 6.335067749023438 13.42633438110352 3.198079586029053 19.1440372467041 2.177183151245117 25.37951278686523 L 11.24715328216553 29.88622856140137 L 2.177181243896484 34.3929443359375 C 3.198067665100098 40.62841033935547 6.335057258605957 46.34612274169922 11.10532855987549 50.61385345458984 C 16.26519012451172 55.23014068603516 22.93501663208008 57.77245330810547 29.88615417480469 57.77245330810547 M 29.88615417480469 59.77245330810547 C 22.44230270385742 59.77245330810547 15.29889106750488 57.04922866821289 9.771803855895996 52.10438919067383 C 4.286140918731689 47.19664001464844 0.8157660365104675 40.49767684936523 3.561401399565511e-06 33.241455078125 L 6.752553462982178 29.88622856140137 L 3.561401399565511e-06 26.53100395202637 C 0.8159410357475281 19.27335357666016 4.286778450012207 12.5752534866333 9.771803855895996 7.668078422546387 C 15.29889106750488 2.723228454589844 22.44230270385742 3.561401399565511e-06 29.88615417480469 3.561401399565511e-06 C 37.32995223999023 3.561401399565511e-06 44.47341537475586 2.723403453826904 50.00057983398438 7.668553352355957 C 55.48630523681641 12.57656574249268 58.95669174194336 19.27570343017578 59.77245330810547 26.53194046020508 L 53.01977920532227 29.88622856140137 L 59.77234268188477 33.241455078125 C 58.95641708374023 40.49905395507812 55.48558044433594 47.19716644287109 50.00055313110352 52.10438919067383 C 44.47341537475586 57.04922866821289 37.32997894287109 59.77245330810547 29.88615417480469 59.77245330810547 Z"/></g><path class="b" d="M4.649,22.881,9.615,14.49l4.95,8.392H19.23L12.113,11.346,19.072,0H14.454L9.615,8.266,4.776,0H.158L7.132,11.346,0,22.881Z" transform="translate(20.221 18.499)"/></svg>