<svg
  xmlns="http://www.w3.org/2000/svg"
  width="50"
  height="22"
  viewBox="0 0 65 30"
>
    <defs>
        <style>
            .cls-2{fill:#36f}.cls-4{fill:#fff}
        </style>
    </defs>
    <g id="light_mode" transform="translate(-1352 -29)">
        <rect
      id="Rectangle"
      width="65"
      height="30"
      fill="#f1f1f1"
      rx="15"
      transform="translate(1352 29)"
    />
        <rect
      id="Rectangle_Copy_6"
      width="22"
      height="22"
      class="cls-2"
      rx="11"
      transform="translate(1391 33)"
    />
        <g id="Group_121" transform="translate(1394 36)">
            <path
        id="Path_304"
        fill="none"
        stroke="#fff"
        d="M10.011 7a3.011 3.011 0 1 0 3.011 3.011A3.014 3.014 0 0 0 10.011 7z"
        transform="translate(-2.348 -2.348)"
      />
            <path
        id="Path_305"
        d="M15.444 3.221a.444.444 0 0 0 .444-.444V1.444a.444.444 0 1 0-.888 0v1.333a.444.444 0 0 0 .444.444z"
        class="cls-4"
        transform="translate(-7.782)"
      />
            <path
        id="Path_306"
        d="M15.444 26a.444.444 0 0 0-.444.444v1.332a.444.444 0 0 0 .888 0v-1.332a.444.444 0 0 0-.444-.444z"
        class="cls-4"
        transform="translate(-7.782 -13.896)"
      />
            <path
        id="Path_307"
        d="M27.777 15h-1.333a.444.444 0 1 0 0 .888h1.332a.444.444 0 0 0 0-.888z"
        class="cls-4"
        transform="translate(-13.896 -7.782)"
      />
            <path
        id="Path_308"
        d="M3.221 15.444A.444.444 0 0 0 2.777 15H1.444a.444.444 0 1 0 0 .888h1.333a.444.444 0 0 0 .444-.444z"
        class="cls-4"
        transform="translate(0 -7.782)"
      />
            <path
        id="Path_309"
        d="M23.222 6.931a.443.443 0 0 0 .314-.13l.942-.942a.444.444 0 0 0-.628-.628l-.942.942a.444.444 0 0 0 .314.758z"
        class="cls-4"
        transform="translate(-12.105 -2.279)"
      />
            <path
        id="Path_310"
        d="M6.173 22.908l-.942.942a.444.444 0 1 0 .628.628l.942-.942a.444.444 0 0 0-.628-.628z"
        class="cls-4"
        transform="translate(-2.279 -12.106)"
      />
            <path
        id="Path_311"
        d="M23.536 22.908a.444.444 0 1 0-.628.628l.942.942a.444.444 0 1 0 .628-.628z"
        class="cls-4"
        transform="translate(-12.105 -12.105)"
      />
            <path
        id="Path_312"
        d="M6.173 6.8a.444.444 0 0 0 .627-.627l-.942-.942a.444.444 0 0 0-.628.628z"
        class="cls-4"
        transform="translate(-2.279 -2.279)"
      />
        </g>
        <path
      id="Path_313"
      d="M12.973 12.338a4.838 4.838 0 0 1-6.12-4.681 4.808 4.808 0 0 1 .058-.71.486.486 0 0 0-.607-.54 5.821 5.821 0 1 0 7.274 6.469.484.484 0 0 0-.607-.539zm-5.149 4.541a4.85 4.85 0 0 1-1.941-9.3v.075a5.831 5.831 0 0 0 5.824 5.824 5.629 5.629 0 0 0 .757-.052 4.881 4.881 0 0 1-4.64 3.453z"
      class="cls-2"
      transform="translate(1359 31.608)"
    />
    </g>
</svg>
