<svg xmlns="http://www.w3.org/2000/svg" width="127" height="127" viewBox="0 0 127 127">
    <g>
        <g fill="#191d43" stroke="#404277" transform="translate(-680 -998) translate(680 998)">
            <circle cx="63.5" cy="63.5" r="63.5" stroke="none"/>
            <circle cx="63.5" cy="63.5" r="63" fill="none"/>
        </g>
        <g>
            <path fill="#36f" d="M87.412 46.136a32.576 32.576 0 1 0 30.195 34.8 32.576 32.576 0 0 0-30.195-34.8zm-4.149 58.636a26.192 26.192 0 1 1 27.974-24.293 26.192 26.192 0 0 1-27.974 24.293z" transform="translate(-680 -998) translate(658.465 982.947) translate(0 0)"/>
            <g>
                <path fill="#10ca93" d="M96.035 63.692l-19.589 1.913a4.587 4.587 0 0 0-4.134 4.222 5.04 5.04 0 0 0 .19 1.621 4.587 4.587 0 0 0 6.574 2.673l17.267-9.408a.54.54 0 0 0-.307-1.023zm-18.611 9a2.629 2.629 0 1 1 1.739-3.292 2.629 2.629 0 0 1-1.738 3.287z" transform="translate(-680 -998) translate(658.465 982.947) translate(81.417 71.812) translate(-72.306 -63.687)"/>
            </g>
        </g>
    </g>
</svg>
