<svg xmlns="http://www.w3.org/2000/svg" width="25" height="25" viewBox="0 0 25 25">
    <g>
        <path fill="none" d="M0 0H25V25H0z" transform="translate(-396 -100) translate(396 100)"/>
        <path fill="#f8f8f8" d="M6.947 16.869c0 .084-.1.151-.218.151-.138.013-.234-.054-.234-.151s.1-.151.218-.151.234.054.234.151zm-1.3-.188c-.029.084.054.18.18.205a.2.2 0 0 0 .26-.084c.025-.084-.054-.18-.18-.218a.215.215 0 0 0-.262.096zm1.853-.072c-.121.029-.205.109-.193.205s.121.138.247.109.205-.109.193-.193-.13-.13-.247-.121zM10.251.563A10.041 10.041 0 0 0 0 10.78 10.5 10.5 0 0 0 7.1 20.8c.536.1.724-.234.724-.507S7.81 18.6 7.81 17.719c0 0-2.931.628-3.547-1.248 0 0-.477-1.219-1.164-1.533 0 0-.959-.657.067-.645a2.21 2.21 0 0 1 1.616 1.08 2.214 2.214 0 0 0 3.053.875 2.327 2.327 0 0 1 .67-1.411c-2.341-.26-4.7-.6-4.7-4.627a3.174 3.174 0 0 1 .985-2.466A3.956 3.956 0 0 1 4.9 4.9c.875-.272 2.889 1.131 2.889 1.131a9.893 9.893 0 0 1 5.259 0s2.014-1.407 2.89-1.131a3.955 3.955 0 0 1 .109 2.843 3.255 3.255 0 0 1 1.08 2.466c0 4.041-2.466 4.363-4.807 4.627a2.476 2.476 0 0 1 .712 1.943c0 1.411-.013 3.157-.013 3.5 0 .272.193.6.724.507A10.4 10.4 0 0 0 20.77 10.78 10.268 10.268 0 0 0 10.251.563zM4.07 15.005c-.054.042-.042.138.029.218s.163.1.218.042.042-.138-.029-.218-.163-.096-.218-.042zm-.452-.339c-.029.054.013.121.1.163a.125.125 0 0 0 .18-.029c.029-.054-.013-.121-.1-.163-.084-.025-.151-.013-.18.029zm1.357 1.491c-.067.054-.042.18.054.26.1.1.218.109.272.042s.029-.18-.054-.26c-.092-.099-.218-.109-.272-.042zm-.475-.616c-.067.042-.067.151 0 .247s.18.138.234.1a.191.191 0 0 0 0-.26c-.061-.099-.17-.141-.234-.087z" transform="translate(-396 -100) translate(398 101.438)"/>
    </g>
</svg>
