<svg xmlns="http://www.w3.org/2000/svg" width="180" height="36" viewBox="0 0 180 36"><defs><style>.a,.c{fill:#fff;}.a{font-size:21px;font-family:Raleway-SemiBold, Raleway;font-weight:600;}.b{opacity:0.9;}</style></defs><g transform="translate(-98 -26)"><text class="a" transform="translate(139 52)"><tspan x="0" y="0">Twitter D-App</tspan></text><g transform="translate(82.071 -74.203)"><g class="b" transform="translate(18.004 101.856)"><path class="c" d="M38.573,12.885,25,5.046a.348.348,0,0,0-.349,0L11.072,12.885a.348.348,0,0,0-.174.3V28.863a.347.347,0,0,0,.174.3L24.649,37a.35.35,0,0,0,.174.046A.345.345,0,0,0,25,37l13.576-7.839a.348.348,0,0,0,.174-.3V13.187A.347.347,0,0,0,38.573,12.885ZM24.823,5.751,37.7,13.187l-12.88,7.436-12.88-7.436ZM11.595,13.79l12.88,7.436V36.1l-12.88-7.436ZM25.171,36.1V21.226L38.051,13.79V28.662Z" transform="translate(-10.898 -5)"/></g><g transform="translate(15.629 100.292)"><circle class="c" cx="3" cy="3" r="3" transform="translate(0.3 6.911)"/><circle class="c" cx="3" cy="3" r="3" transform="translate(13.3 -0.089)"/><circle class="c" cx="3" cy="3" r="3" transform="translate(13.3 12.911)"/><circle class="c" cx="3" cy="3" r="3" transform="translate(26.3 6.911)"/><circle class="c" cx="3" cy="3" r="3" transform="translate(13.3 29.911)"/><circle class="c" cx="3" cy="3" r="3" transform="translate(0.3 23.911)"/><circle class="c" cx="3" cy="3" r="3" transform="translate(26.3 23.911)"/></g></g></g></svg>