<svg xmlns="http://www.w3.org/2000/svg" width="127" height="127" viewBox="0 0 127 127">
    <g>
        <g fill="#191d43" stroke="#404277" transform="translate(-1422 -678) translate(1422 678)">
            <circle cx="63.5" cy="63.5" r="63.5" stroke="none"/>
            <circle cx="63.5" cy="63.5" r="63" fill="none"/>
        </g>
        <g>
            <path fill="#36f" stroke="#36f" d="M51.67 21.89c-.55 0-1.11-.05-1.67-.05s-1.12 0-1.67.05C24.39 23 5.72 47.77 4.91 48.85a1.94 1.94 0 0 0 0 2.31c.8 1.08 19.48 25.83 43.41 27 .55 0 1.11.05 1.67.05s1.12 0 1.67-.05c23.93-1.12 42.61-25.88 43.41-27a1.94 1.94 0 0 0 0-2.31c-.79-1.08-19.46-25.85-43.4-26.96zM8.93 50a84.78 84.78 0 0 1 18.4-16.69 28.09 28.09 0 0 0 0 33.35A85 85 0 0 1 8.93 50zm42.44 24.26h-2.74a24.29 24.29 0 0 1 0-48.51h2.74a24.29 24.29 0 0 1 0 48.51zm21.31-7.57a28.09 28.09 0 0 0 0-33.35A85 85 0 0 1 91.07 50a84.78 84.78 0 0 1-18.4 16.69z" transform="translate(-1422 -678) translate(603.471 62) translate(832 623.957)"/>
            <path fill="#10ca93" stroke="#10ca93" d="M50 32a18 18 0 1 0 18 18 18 18 0 0 0-18-18zm0 32.17a14.16 14.16 0 1 0 0-.02z" transform="translate(-1422 -678) translate(603.471 62) translate(832 623.957)"/>
        </g>
    </g>
</svg>
