<svg xmlns="http://www.w3.org/2000/svg" width="127" height="127" viewBox="0 0 127 127">
    <defs>
        <style>
            .cls-6{fill:none}.cls-4{fill:#10ca93}.cls-5{stroke:none}
        </style>
    </defs>
    <g id="Reading_Speed" transform="translate(-680 -678)">
        <g id="Ellipse_38" fill="#191d43" stroke="#404277" transform="translate(680 678)">
            <circle cx="63.5" cy="63.5" r="63.5" class="cls-5"/>
            <circle cx="63.5" cy="63.5" r="63" class="cls-6"/>
        </g>
        <g id="Group_163" transform="translate(-340.003 -82.17)">
            <path id="Path_360" fill="none" stroke="#36f" stroke-linecap="round" stroke-linejoin="round" stroke-width="6px" d="M6238.616 6148.923v-20.1h47.514v61.567h-46.01" transform="translate(-5177.366 -5337)"/>
            <g id="Ellipse_43" fill="#191d43" stroke="#36f" stroke-linejoin="round" stroke-width="4px" transform="translate(1053.003 822.17)">
                <circle cx="10.5" cy="10.5" r="10.5" class="cls-5"/>
                <circle cx="10.5" cy="10.5" r="12.5" class="cls-6"/>
            </g>
            <rect id="Rectangle_744" width="26" height="5" class="cls-4" rx="2" transform="translate(1074.003 798.17)"/>
            <rect id="Rectangle_745" width="26" height="4" class="cls-4" rx="2" transform="translate(1074.003 807.17)"/>
            <rect id="Rectangle_746" width="26" height="5" class="cls-4" rx="2" transform="translate(1074.003 814.17)"/>
            <path id="Path_347" d="M67.594 33.1a1.114 1.114 0 0 0-1.094 1.094v6.439c0 .084.042.126.042.21.042.042.042.126.084.168.042.042.084.126.126.168l2.778 2.778a1.131 1.131 0 0 0 .758.337 1.054 1.054 0 0 0 .758-.337 1.118 1.118 0 0 0 0-1.557l-2.483-2.483v-5.723a.922.922 0 0 0-.969-1.094z" class="cls-4" transform="translate(995.39 793.532)"/>
        </g>
    </g>
</svg>
