<svg xmlns="http://www.w3.org/2000/svg" width="127" height="127" viewBox="0 0 127 127">
    <g>
        <g fill="#191d43" stroke="#404277" transform="translate(-1051 -678) translate(1051 678)">
            <circle cx="63.5" cy="63.5" r="63.5" stroke="none"/>
            <circle cx="63.5" cy="63.5" r="63" fill="none"/>
        </g>
        <g>
            <path fill="#36f" d="M98.715 259.834v12.731a2.9 2.9 0 0 1-.091.706 2.734 2.734 0 0 1-2.662 2.191H43.934a2.725 2.725 0 0 1-2.7-2.427 2.145 2.145 0 0 1-.036-.489v-12.73a2.716 2.716 0 0 1 5.433 0v10.2H93.3v-10.2a2.715 2.715 0 0 1 4.636-1.92 2.868 2.868 0 0 1 .779 1.938z" transform="translate(-1051 -678) translate(1044.8 666.297) translate(0 -176.556)"/>
            <path fill="#10ca93" d="M140.734 70.529l-13.346 13.347c-.018.036-.054.054-.072.072a3.145 3.145 0 0 1-1.757.887c-.054 0-.109.018-.163.018a1.968 1.968 0 0 1-.326.018l-.308-.018c-.054 0-.109-.018-.163-.018a3.089 3.089 0 0 1-1.757-.887l-.072-.072-13.346-13.347a3.176 3.176 0 0 1 4.491-4.491l8.022 8.022V44.669a3.184 3.184 0 0 1 3.169-3.169 3.239 3.239 0 0 1 2.246.924 3.131 3.131 0 0 1 .924 2.246v29.39l8.022-8.022a3.192 3.192 0 0 1 4.491 0 3.243 3.243 0 0 1-.055 4.491z" transform="translate(-1051 -678) translate(1044.8 666.297) translate(-55.113)"/>
        </g>
    </g>
</svg>
