<svg xmlns="http://www.w3.org/2000/svg" width="127" height="127" viewBox="0 0 127 127">
    <defs>
        <style>
            .cls-2{fill:#36f;stroke:#36f}
        </style>
    </defs>
    <g id="Saving_Speed" transform="translate(-309 -678)">
        <g id="Ellipse_37" fill="#191d43" stroke="#404277" transform="translate(309 678)">
            <circle cx="63.5" cy="63.5" r="63.5" stroke="none"/>
            <circle cx="63.5" cy="63.5" r="63" fill="none"/>
        </g>
        <g id="Group_149" transform="translate(329 696.597)">
            <path id="Path_344" d="M44.542 37.658a2.087 2.087 0 0 0-2.058-2.058H16.758a2.058 2.058 0 1 0 0 4.116h25.726a2.031 2.031 0 0 0 2.058-2.058z" class="cls-2" transform="translate(-1.382 -1.638)"/>
            <path id="Path_345" d="M42.665 49.158a2.087 2.087 0 0 0-2.058-2.058H27.058a2.058 2.058 0 1 0 0 4.116h13.549a2.031 2.031 0 0 0 2.058-2.058z" class="cls-2" transform="translate(-2.849 -3.277)"/>
            <path id="Path_346" d="M59.968 24.1H7.058a2.058 2.058 0 0 0 0 4.116h53a18.094 18.094 0 1 1-16.126 26.412 2 2 0 0 0-1.8-1.115H31.583a2.058 2.058 0 0 0 0 4.116h9.261A22.215 22.215 0 1 0 59.968 24.1z" class="cls-2" transform="translate(0 0)"/>
            <path id="Path_347" fill="#10ca93" d="M68.73 33.1a2.27 2.27 0 0 0-2.23 2.23V48.45c0 .172.086.257.086.429.086.086.086.257.172.343.086.086.172.257.257.343l5.66 5.66a2.305 2.305 0 0 0 1.544.686 2.147 2.147 0 0 0 1.544-.686 2.278 2.278 0 0 0 0-3.173l-5.063-5.06V35.33a1.879 1.879 0 0 0-1.97-2.23z" transform="translate(-8.762 -1.282)"/>
        </g>
    </g>
</svg>
