<svg xmlns="http://www.w3.org/2000/svg" width="25" height="25" viewBox="0 0 25 25">
    <g>
        <path fill="none" d="M0 0H25V25H0z" transform="translate(-469 -100) translate(469 100)"/>
        <path fill="#f8f8f8" d="M17.836 5.894l-2.7 12.729c-.2.9-.735 1.122-1.489.7l-4.112-3.032L7.551 18.2a1.033 1.033 0 0 1-.827.4l.3-4.188 7.622-6.888c.331-.3-.072-.459-.515-.164L4.7 13.3.647 12.027c-.882-.276-.9-.882.184-1.306L16.7 4.608c.735-.276 1.378.164 1.138 1.286z" transform="translate(-469 -100) translate(472.999 100.472)"/>
    </g>
</svg>
