<svg xmlns="http://www.w3.org/2000/svg" width="127" height="127" viewBox="0 0 127 127">
    <defs>
        <style>
            .cls-6{fill:none}.cls-4{fill:#10ca93}.cls-5{stroke:none}
        </style>
    </defs>
    <g id="Top_trending" transform="translate(-306 -998)">
        <g id="Ellipse_41" fill="#191d43" stroke="#404277" transform="translate(306 998)">
            <circle cx="63.5" cy="63.5" r="63.5" class="cls-5"/>
            <circle cx="63.5" cy="63.5" r="63" class="cls-6"/>
        </g>
        <g id="Group_155" stroke="#36f" stroke-width="6px" transform="translate(337.067 1029.797)">
            <g id="Rectangle_743" fill="#191d43" transform="translate(-0.068 0.203)">
                <rect width="69" height="58" class="cls-5" rx="5"/>
                <rect width="75" height="64" x="-3" y="-3" class="cls-6" rx="8"/>
            </g>
            <path id="Path_359" fill="none" d="M6187 5985.341h70.69" transform="translate(-6187 -5974.871)"/>
        </g>
        <path id="Path_357" d="M18.819 58.909h3.5l-.73 3.431a.745.745 0 0 0 .151.66.9.9 0 0 0 .584.292h3.139a.786.786 0 0 0 .73-.584l.8-3.723h5.257l-.73 3.431a.745.745 0 0 0 .146.657.9.9 0 0 0 .584.292h3.139a.786.786 0 0 0 .73-.584l.8-3.723h3.8a.711.711 0 0 0 .73-.584l.657-3.066a.745.745 0 0 0-.146-.657.9.9 0 0 0-.584-.292h-3.5l1.1-5.33h3.869a.711.711 0 0 0 .73-.584l.657-3.066a.745.745 0 0 0-.146-.657.9.9 0 0 0-.584-.292h-3.583l.73-3.431a.745.745 0 0 0-.146-.657.581.581 0 0 0-.584-.442h-3.14a.786.786 0 0 0-.73.584l-.8 3.8H29.99l.73-3.431a.745.745 0 0 0-.146-.657.664.664 0 0 0-.584-.296h-3.14a.711.711 0 0 0-.73.584l-.8 3.8h-3.8a.711.711 0 0 0-.73.584l-.657 3.066a.745.745 0 0 0 .146.657.9.9 0 0 0 .584.292h3.5l-1.1 5.33h-3.8a.786.786 0 0 0-.73.584l-.657 3.066a.745.745 0 0 0 .146.657.9.9 0 0 0 .597.289zm10.222-9.929H34.3l-1.1 5.33h-5.255z" class="cls-4" transform="translate(330.93 1011.425)"/>
        <path id="Path_358" d="M55.2 63.2a1.444 1.444 0 0 0 .8.146h.365c.073 0 .219-.073.292-.073a1.854 1.854 0 0 0 1.022-.949l3.8-8.1 3.869 1.825a1.9 1.9 0 0 0 2.482-.876l3.942-8.688 1.1.511a1.242 1.242 0 0 0 1.314-.146 1.278 1.278 0 0 0 .438-1.241l-1.1-4.965a1.3 1.3 0 0 0-.657-.876 1.424 1.424 0 0 0-1.1 0L67.244 42.1a1.2 1.2 0 0 0-.657 1.1 1.278 1.278 0 0 0 .73 1.1l1.1.511-3.217 6.922-3.87-1.752a1.9 1.9 0 0 0-2.482.876l-4.6 9.783a1.994 1.994 0 0 0 .952 2.56z" class="cls-4" transform="translate(321.2 1011.52)"/>
    </g>
</svg>
