<svg xmlns="http://www.w3.org/2000/svg" width="46" height="46" viewBox="0 0 46 46">
    <defs>
        <style>
            .cls-2{fill:#fff}
        </style>
    </defs>
    <g id="Tweet_archive" transform="translate(-120 -90)">
        <path id="Rectangle_769" fill="none" d="M0 0H46V46H0z" transform="translate(120 90)"/>
        <g id="Group_85" transform="translate(125 97)">
            <path id="Path_236" d="M46.177 22.682a3.325 3.325 0 0 1 .4.026v-.972a1.918 1.918 0 0 0-1.916-1.916h-24.51a1.918 1.918 0 0 0-1.916 1.916v.972a3.325 3.325 0 0 1 .4-.026z" class="cls-2" transform="translate(-15.638 -19.82)"/>
            <path id="Path_237" d="M13.513 37.14l2.166 14.928a.549.549 0 0 1 .006.079 2.082 2.082 0 0 0 2.079 2.079h26.128a2.082 2.082 0 0 0 2.079-2.079.554.554 0 0 1 .006-.079l2.167-14.928a2.446 2.446 0 0 0-2.444-2.406H15.956a2.446 2.446 0 0 0-2.443 2.406z" class="cls-2" transform="translate(-13.513 -23.783)"/>
            <path id="Path_238" d="M14.913 29.246v1.339a3.521 3.521 0 0 1 1.673-.421h29.745a3.54 3.54 0 0 1 .573.051v-.969a2.225 2.225 0 0 0-2.222-2.222H17.135a2.225 2.225 0 0 0-2.222 2.222z" class="cls-2" transform="translate(-14.143 -21.412)"/>
            <path id="Path_235" fill="#0d0e2d" d="M32.057 33.322a3.2 3.2 0 0 0 1.294-.5 3.045 3.045 0 0 0 1.188-1.522 3.913 3.913 0 0 1-2.01.183 4.568 4.568 0 0 0 2.725-1.523 3.563 3.563 0 0 0 .822-2.177 4.568 4.568 0 0 1-2.512.929 4.568 4.568 0 0 0 2.01-2.284 2.878 2.878 0 0 0 .167-2.04 7.461 7.461 0 0 1-5.679 2.1v-.853a2.954 2.954 0 0 0-5.451-1.66 6.806 6.806 0 0 1-1.431-.822 3.167 3.167 0 0 0 .914 1.523 4.9 4.9 0 0 1-1.264-.518 3.121 3.121 0 0 0 1.279 1.442A9.136 9.136 0 0 0 35.27 35.864a8.283 8.283 0 0 1-3.213-2.543z" transform="translate(-12.688 -9.627)"/>
        </g>
    </g>
</svg>
