<svg xmlns="http://www.w3.org/2000/svg" width="46" height="46" viewBox="0 0 46 46">
    <defs>
        <style>
            .cls-3{fill:#fff}
        </style>
    </defs>
    <g id="Twitetr_Simulator" transform="translate(-238 -90)">
        <path id="Rectangle_770" fill="none" d="M0 0H46V46H0z" transform="translate(238 90)"/>
        <g id="Group_95" transform="translate(229.071 -5.203)">
            <g id="Group_93" opacity="0.9" transform="translate(18.004 101.856)">
                <path id="Path_276" d="M38.573 12.885L25 5.046a.348.348 0 0 0-.349 0l-13.579 7.839a.348.348 0 0 0-.174.3v15.678a.347.347 0 0 0 .174.3L24.649 37a.35.35 0 0 0 .174.046A.345.345 0 0 0 25 37l13.576-7.839a.348.348 0 0 0 .174-.3V13.187a.347.347 0 0 0-.177-.302zm-13.75-7.134L37.7 13.187l-12.88 7.436-12.88-7.436zM11.595 13.79l12.88 7.436V36.1l-12.88-7.436zM25.171 36.1V21.226l12.88-7.436v14.872z" class="cls-3" transform="translate(-10.898 -5)"/>
            </g>
            <g id="Group_94" transform="translate(15.629 100.292)">
                <circle id="Ellipse_20" cx="3" cy="3" r="3" class="cls-3" transform="translate(.3 6.911)"/>
                <circle id="Ellipse_21" cx="3" cy="3" r="3" class="cls-3" transform="translate(13.3 -.089)"/>
                <circle id="Ellipse_22" cx="3" cy="3" r="3" class="cls-3" transform="translate(13.3 12.911)"/>
                <circle id="Ellipse_26" cx="3" cy="3" r="3" class="cls-3" transform="translate(26.3 6.911)"/>
                <circle id="Ellipse_23" cx="3" cy="3" r="3" class="cls-3" transform="translate(13.3 29.911)"/>
                <circle id="Ellipse_24" cx="3" cy="3" r="3" class="cls-3" transform="translate(.3 23.911)"/>
                <circle id="Ellipse_25" cx="3" cy="3" r="3" class="cls-3" transform="translate(26.3 23.911)"/>
            </g>
        </g>
    </g>
</svg>
